<?xml version="1.0" standalone="no"?>
<!DOCTYPE svg PUBLIC "-//W3C//DTD SVG 20010904//EN"
 "http://www.w3.org/TR/2001/REC-SVG-20010904/DTD/svg10.dtd">
<svg version="1.0" xmlns="http://www.w3.org/2000/svg"
 width="200.000000pt" height="200.000000pt" viewBox="0 0 200.000000 200.000000"
 preserveAspectRatio="xMidYMid meet">
<metadata>
Created by potrace 1.11, written by Peter Selinger 2001-2013
</metadata>
<g transform="translate(0.000000,200.000000) scale(0.100000,-0.100000)"
fill="#000000" stroke="none">
<path d="M49 1912 c-74 -74 -66 -136 28 -233 l66 -68 -56 -61 c-52 -56 -77
-105 -77 -154 0 -57 27 -104 116 -197 96 -100 118 -132 129 -190 13 -70 -9
-112 -120 -234 -98 -108 -125 -152 -125 -205 0 -45 26 -97 77 -152 l55 -60
-60 -62 c-33 -33 -65 -71 -71 -83 -42 -83 35 -193 135 -193 46 0 93 27 162 93
l42 41 48 -46 c76 -75 151 -96 229 -63 20 9 78 55 128 104 108 105 142 125
210 125 68 0 104 -21 208 -121 158 -152 242 -161 365 -40 l52 51 63 -61 c73
-71 93 -83 142 -83 94 0 160 87 136 178 -7 25 -32 58 -76 102 l-65 64 44 46
c57 59 76 98 76 159 0 71 -13 93 -121 211 -78 86 -98 115 -108 154 -23 91 -1
137 124 267 95 98 115 134 115 204 -1 44 -32 105 -79 150 -22 21 -41 44 -41
50 0 6 27 37 60 70 81 80 92 119 58 207 -15 41 -66 68 -125 68 -55 0 -96 -24
-162 -94 -19 -20 -39 -36 -44 -36 -6 0 -33 22 -62 49 -114 108 -202 94 -354
-53 -47 -46 -100 -91 -118 -100 -37 -19 -134 -21 -166 -4 -12 6 -71 55 -130
109 -107 98 -144 119 -210 119 -45 0 -99 -28 -150 -78 l-47 -46 -58 56 c-71
69 -88 78 -153 78 -46 0 -55 -4 -90 -38z m1032 -396 c179 -38 336 -176 401
-351 32 -86 32 -273 0 -360 -67 -179 -221 -311 -412 -351 -272 -57 -552 124
-624 403 -98 378 251 740 635 659z"/>
<path d="M829 1461 c-232 -74 -381 -302 -349 -533 32 -228 191 -391 418 -430
230 -39 472 112 542 339 24 77 27 203 6 278 -33 123 -136 254 -244 309 -112
57 -263 72 -373 37z m261 -226 c0 -3 -30 -103 -66 -223 -36 -119 -69 -228 -73
-242 -6 -21 -14 -25 -54 -28 -32 -2 -47 1 -47 9 0 12 139 468 147 482 5 8 93
10 93 2z m-250 -124 l0 -48 -60 -32 c-33 -18 -60 -35 -60 -39 0 -4 27 -22 60
-40 59 -32 60 -33 60 -77 0 -26 -5 -45 -11 -45 -6 0 -60 28 -120 61 l-110 61
3 41 c3 41 3 41 113 104 61 34 113 62 118 62 4 1 7 -21 7 -48z m423 -33 c81
-46 87 -51 87 -81 0 -18 -4 -37 -8 -43 -12 -18 -221 -126 -232 -119 -12 7 -13
65 -2 81 4 6 33 25 65 43 l59 34 -61 34 -61 34 0 50 0 50 33 -17 c17 -9 71
-39 120 -66z"/>
</g>
</svg>
