<?xml version="1.0"?>
<svg xmlns="http://www.w3.org/2000/svg" height="512px" viewBox="-1 0 512 512" width="512px" class=""><g><path d="m496.847656 124.832031v-86.839843c0-20.449219-22.292968-36.476563-50.753906-36.476563h-115.730469c-7.503906 0-13.378906 5.035156-13.378906 11.464844.09375 4.5625-.699219 11.003906 2.699219 25.035156-40.824219-12.699219-86.375-13.890625-129.398438-1.914063-.890625-8.664062-5.671875-16.195312-12.566406-20.792968v-3.882813c0-6.410156-5.785156-11.425781-13.164062-11.425781h-111.382813c-27.550781 0-49.125 15.894531-49.125 36.183594v56.980468c0 8.332032 7.207031 15.054688 17.015625 16.449219v7.472657c-29.132812 11.980468-27.597656 53.429687 1.839844 63.582031 1.605468 5.925781 4.273437 11.820312 7.933594 17.582031-4.832032 18.625-7.328126 37.996094-7.328126 57.75 0 60.964844 23.738282 118.277344 66.847657 161.378906 13.832031 13.832032 29.117187 25.667969 45.527343 35.367188-3.355468 3.585937-7.269531 7.09375-11.839843 10.390625-3.984375 2.882812-5.207031 8.292969-2.832031 12.597656 11.09375 20.054687 35.90625 36.265625 66.457031 36.265625h128.136719c30.496093 0 55.382812-16.199219 66.460937-36.273438 2.367187-4.296874 1.144531-9.707031-2.847656-12.589843-4.5625-3.296875-8.472657-6.804688-11.832031-10.402344 85.722656-50.597656 129.582031-151.160156 106.230468-249.691406 4.285156-6.226563 7.417969-12.648438 9.300782-19.097657 14.871093-3.628906 25.941406-17.066406 25.941406-33.039062 0-10.457031-4.75-19.835938-12.210938-26.074219zm-475.785156 37.386719c-7.902344-7.421875-7.902344-19.960938 0-27.378906zm169.375-110.292969c42.898438-12.90625 90.75-12.289062 135.335938 4.277344 1.210937 2.789063 2.597656 5.640625 4.164062 8.511719v21.675781c-45.003906-20.839844-95.375-22.207031-139.5-6.832031zm-14.113281 53.867188h2.65625c5.84375 0 10.667969-4.398438 11.367187-10.050781 44.71875-17.191407 95.730469-15.019532 139.589844 7.523437v16.195313c-29.140625 11.984374-27.589844 53.429687 1.839844 63.582031 9.589844 35.238281 55.992187 62.917969 75.785156 62.917969 4.214844 0 9.496094-1.222657 15.257812-3.417969 4.820313 60.445312-22.691406 117.773437-70.589843 152.480469-1.597657-7.066407-5.398438-13.304688-10.636719-17.945313 2.101562-2.597656 3.367188-5.921875 3.367188-9.550781v-47.582032c0-35.585937-28.105469-64.542968-62.652344-64.542968h-61.148438c-32.273437 0-62.652344 25.710937-62.652344 67.144531 0 12.25 0 46.140625.011719 50.429687-6.492187 3.730469-11.636719 9.53125-14.527343 16.5-38.925782-31.484374-63.867188-79.621093-63.867188-133.476562 0-5.683594.273438-11.304688.820312-16.84375 6.742188 2.820312 12.929688 4.429688 17.75 4.429688 20.042969 0 65.511719-27.527344 75.546876-62.015626 14.871093-3.632812 25.941406-17.066406 25.941406-33.03125 0-15.214843-10.050782-28.136718-23.859375-32.464843zm153.613281 31.421875v27.378906c-7.902344-7.417969-7.898438-19.960938 0-27.378906zm-1.832031 281.84375c0-7.675782 0-25.378906 0-33.070313 13.011719 7.167969 13.0625 25.855469 0 33.070313zm-151.78125-286.382813c11.546875 7.394531 11.625 24.273438 0 31.714844zm-2.082031-98.785156c1.304687 3.105469 1.03125-1.789063 1.03125 56.738281-6.257813 0-11.402344 0-17.855469 0-7.351563 0-13.335938-5.988281-13.335938-13.335937 0-.148438 0-5.785157 0-5.683594 11.84375-9.925781 24.242188-23.507813 30.160157-37.71875zm-149.378907 60.832031c-1.882812 0-4.652343-.601562-5.652343-1.851562v-56.6875c0-10.140625 12.304687-18.875 27.984374-20.675782 5.5-.628906 1.773438-.222656 115.359376-.34375-.011719 3.96875.015624 3.117188-.023438 4.015626-.789062 15.898437-20.730469 35.324218-33.613281 45.011718-49.238281 37.125-97.136719 29.574219-104.054688 30.53125zm11.363281 15.164063c1.652344-.105469 20.65625.898437 45.160157-5.773438 17.042969-4.632812 33.296875-11.910156 48.015625-21.582031 1.667968 8.957031 7.542968 16.449219 15.488281 20.351562 7.667969 3.789063 14.058594 2.726563 16.265625 2.910157v61.550781c0 31.382812-46.769531 61.074219-62.460938 61.074219-13.011718 0-53.492187-23.351563-61.144531-51.570313-.847656-3.054687-.894531-8.996094-1.324219-66.960937zm2.445313 146.113281c0-14.621094 1.476563-28.90625 4.296875-42.707031 6.601562 6.671875 14.855469 13.171875 23.566406 18.441406-1.039062 7.949219-1.574218 16.046875-1.574218 24.265625 0 61.863281 30.226562 116.804688 76.695312 150.804688.988281 7.914062 4.71875 14.992187 10.199219 20.257812-1.566407 4.167969-3.699219 8.738281-6.589844 13.429688-63.664063-36.875-106.59375-105.765626-106.59375-184.492188zm148.996094 240.835938c-21.820313 0-40.28125-9.992188-50.664063-24.507813 8.515625-6.824219 15.855469-15.042969 21.597656-24.527344 1.421876 14.453125 18.328126 21.429688 29.539063 12.464844 14.152344 17.476563 37.964844 32.660156 55.089844 36.570313zm7.339843-52.878907c0-19.367187 0-38.796875 0-58.253906 21.257813 7.277344 43.304688 4.785156 61.628907-5.175781 3.683593-2.003906 5.046875-6.601563 3.042969-10.28125-2-3.679688-6.609376-5.046875-10.28125-3.042969-9.058594 4.921875-19.25 7.53125-29.480469 7.53125-19.058594 0-21.59375-7.21875-30.9375-3.425781-.101563.089844-9.140625 3.261718-9.140625 13.484375 0 64.886719.191406 61.609375-.320313 62.59375v.007812c-1.449219 2.894531-5.835937 1.851563-5.835937-1.375 0-51.929687-.015625-116.789062.019531-127.578125.71875-26.398437 22.011719-47.871094 47.457031-47.871094h61.148438c26.257812 0 47.488281 22.226563 47.488281 49.375v47.398438c-9.171875-.164062-17.835937-5.625-21.769531-14.4375l-7.085938-15.875c-5.011718-11.226562-21.113281-10.671875-25.375.832031-1.519531 4.105469-3.609375 8.058594-6.210937 11.746094-2.40625 3.417969-1.585938 8.148437 1.839843 10.566406 3.429688 2.40625 8.160157 1.585938 10.566407-1.839843 2.667969-3.792969 4.925781-7.804688 6.734375-11.980469 3.742187 5.417969 5.957031 23.144531 24.445312 32.140625v42.875c0 32.039062-47.503906 61.199218-62.589844 61.199218-12.625 0-42.332031-18.027343-55.34375-38.613281zm120.796876 52.878907h-58.335938c21.652344-4.933594 59.238281-29.722657 68.476562-60.984376 4.003907-.832031 7.753907-2.367187 11.121094-4.480468 5.820313 16.042968 15.878906 30.097656 29.410156 40.964844-10.566406 14.710937-28.984374 24.5-50.671874 24.5zm42.429687-56.355469c-5.035156-8.160157-7.761719-15.972657-9.230469-21.859375.78125-1.433594 1.445313-2.929688 2.003906-4.476563 59.25-37.3125 94.476563-105.78125 86.378907-178.648437 8.398437-4.851563 16.816406-11.054688 23.933593-17.894532 16.21875 88.429688-24.875 177.5625-103.085937 222.878907zm99.03125-240.703125c-16.222656 19.351562-41.359375 31.019531-49.703125 31.019531-5.652344 0-21.242188-5.855469-36.761719-18.421875-13.078125-10.597656-25.699219-25.882812-25.699219-42.65625 0-9.691406 0-74.796875 0-84.296875 7.382813 7.640625 16.691407 14.667969 28.460938 20.1875 4.871094 2.300781 10.886719.175781 12.800781-4.800781 13.4375 15.320312 30.851563 31.464844 49.40625 40.097656 6.847657 3.179688 14.6875-2.328125 13.144531-9.554688 6.550782 4.191407 13.769532 7.902344 21.121094 10.542969-.601562 26.300781 4.074219 37.878907-12.769531 57.882813zm24.414063-70.113282c-14.164063-3.65625-27.933594-12.160156-38.863282-21.890624-4.671875-4.183594-12.574218-2.570313-14.902344 3.113281-1.667968 3.90625.363282 7.003906.667969 8.363281-19.753906-13.71875-36.273437-34.40625-43.300781-43.910156-5.597656-7.566406-18.339844-2.683594-16.621094 6.550781l.757813 4.085937c-7.96875-5.257812-14.769531-11.757812-20.351563-19.480468-10.089844-13.796875-16.257812-32.78125-16.914062-46.546875v-3.265625h113.941406c19.289062 0 35.585938 9.753906 35.585938 21.308594zm3.519531 37.101563v-20.875c2.382812.382813 4.839843.554687 7.625-1.234375 2.890625 8.136719-.1875 17.347656-7.625 22.109375zm0 0" data-original="#000000" class="active-path" data-old_color="#000000" fill="#FFFFFF"/><path d="m441.9375 143.292969c-2.882812 1.082031-4.992188 3.710937-5.328125 6.863281v.011719c-.039063.292969-.058594.59375-.058594.898437 0 3.246094 1.859375 6.054688 4.589844 7.421875.28125.152344.574219.273438.878906.382813.878907.324218 1.828125.496094 2.828125.496094 4.582032 0 8.300782-3.722657 8.300782-8.300782 0-5.898437-5.9375-9.789062-11.210938-7.773437zm0 0" data-original="#000000" class="active-path" data-old_color="#000000" fill="#FFFFFF"/><path d="m373.058594 142.765625c-4.589844 0-8.300782 3.710937-8.300782 8.300781 0 5.84375 5.839844 9.75 11.128907 7.804688 3.1875-1.164063 5.472656-4.214844 5.472656-7.804688 0-4.558594-3.703125-8.300781-8.300781-8.300781zm0 0" data-original="#000000" class="active-path" data-old_color="#000000" fill="#FFFFFF"/><path d="m385.785156 115.652344c-.230468-.050782-5.660156-1.164063-12.363281-1.234375-.03125-.011719-.0625-.011719-.089844 0-5.617187-.269531-13.570312.871093-19.179687 3.960937-.011719 0-.011719 0-.011719 0-10.734375 6.3125-1.320313 18.6875 6.835937 13.558594 2.316407-1.453125 5.660157-2.003906 8.402344-2.234375 11.144532-.972656 14.761719 2.867187 19.347656-.523437 5.171876-3.773438 3.597657-12.15625-2.941406-13.527344zm0 0" data-original="#000000" class="active-path" data-old_color="#000000" fill="#FFFFFF"/><path d="m421.140625 177.351562c-2.285156 1.296876-3.8125 3.753907-3.8125 6.5625 0 4.644532-3.78125 8.382813-8.378906 8.382813-4.621094 0-8.382813-3.761719-8.382813-8.382813 0-4.183593-3.386718-7.582031-7.582031-7.582031-4.1875 0-7.582031 3.398438-7.582031 7.582031 0 23.542969 30.847656 32.34375 43.402344 12.628907 2.335937-3.652344 3.691406-7.988281 3.691406-12.628907 0-5.917968-6.460938-9.453124-11.355469-6.5625zm0 0" data-original="#000000" class="active-path" data-old_color="#000000" fill="#FFFFFF"/><path d="m133.0625 140.914062c-8.640625 3.253907-6.261719 16.078126 2.910156 16.078126 4.589844 0 8.300782-3.722657 8.300782-8.300782 0-5.898437-5.925782-9.792968-11.210938-7.777344zm0 0" data-original="#000000" class="active-path" data-old_color="#000000" fill="#FFFFFF"/><path d="m126.328125 128.125c5.832031-1.1875 16.617187-1.773438 21.726563 1.4375 8.582031 5.398438 18.210937-8.378906 5.488281-14.234375-8.6875-4.121094-21.804688-3.8125-30.296875-2.054687-4.097656.859374-6.714844 4.863281-5.875 8.957031.839844 4.042969 4.816406 6.738281 8.957031 5.894531zm0 0" data-original="#000000" class="active-path" data-old_color="#000000" fill="#FFFFFF"/><path d="m55.878906 148.691406c0 4.226563 3.167969 7.714844 7.25 8.238282 7.414063.875 12.070313-7.523438 7.644532-13.285157-4.816407-6.265625-14.894532-2.886719-14.894532 5.046875zm0 0" data-original="#000000" class="active-path" data-old_color="#000000" fill="#FFFFFF"/><path d="m73.824219 128.125c4.105469.839844 8.109375-1.777344 8.960937-5.882812.859375-4.09375-1.769531-8.109376-5.875-8.96875-9.867187-1.96875-23.304687-2.113282-32.160156 3.023437-.242188.132813-.484375.273437-.71875.425781-3.546875 2.234375-4.609375 6.914063-2.386719 10.453125 2.234375 3.550781 6.917969 4.613281 10.453125 2.386719 5.113282-3.210938 15.9375-2.621094 21.726563-1.4375zm0 0" data-original="#000000" class="active-path" data-old_color="#000000" fill="#FFFFFF"/><path d="m77.585938 188.496094c3.003906 9.6875 12.03125 16.589844 22.496093 16.589844 23.140625 0 30.738281-31.128907 15.964844-31.128907-4.195313 0-7.582031 3.394531-7.582031 7.582031 0 7.347657-8.832032 11.101563-14.125 6.097657-1.628906-1.527344-2.640625-3.703125-2.640625-6.097657 0-10.910156-19.78125-11.222656-14.113281 6.957032zm0 0" data-original="#000000" class="active-path" data-old_color="#000000" fill="#FFFFFF"/><path d="m265.730469 422.585938c-4.1875 0-7.582031 3.394531-7.582031 7.582031 0 3.535156-2.875 6.414062-6.414063 6.414062-3.535156 0-6.414063-2.878906-6.414063-6.414062 0-4.1875-3.390624-7.582031-7.582031-7.582031-4.1875 0-7.582031 3.394531-7.582031 7.582031 0 11.898437 9.679688 21.578125 21.578125 21.578125s21.578125-9.679688 21.578125-21.578125c0-4.1875-3.390625-7.582031-7.582031-7.582031zm0 0" data-original="#000000" class="active-path" data-old_color="#000000" fill="#FFFFFF"/><path d="m286.929688 391.152344c-10.367188.96875-9.851563 16.589844.765624 16.589844 4.589844 0 8.320313-3.71875 8.320313-8.308594 0-4.726563-3.988281-8.6875-9.085937-8.28125zm0 0" data-original="#000000" class="active-path" data-old_color="#000000" fill="#FFFFFF"/><path d="m289.121094 386.25c10.742187.242188 10.195312 3.519531 14.710937 3.519531 2.5625 0 5.015625-1.289062 6.429688-3.550781.121093-.191406.234375-.382812.324219-.574219 1.78125-3.460937.648437-7.765625-2.710938-9.878906-1.828125-1.152344-3.808594-2.042969-5.871094-2.710937-11.464844-3.78125-25.265625-1.109376-27.054687-.738282-4.097657.851563-6.734375 4.875-5.875 8.96875.847656 4.09375 4.871093 6.734375 8.96875 5.875 2.464843-.515625 6.761719-1.023437 11.078125-.910156zm0 0" data-original="#000000" class="active-path" data-old_color="#000000" fill="#FFFFFF"/><path d="m208.65625 395.144531c-1.757812 2.882813-1.625 6.789063.726562 9.597657 4.945313 5.964843 14.699219 2.441406 14.699219-5.308594 0-8.425782-11.113281-11.445313-15.425781-4.289063zm0 0" data-original="#000000" class="active-path" data-old_color="#000000" fill="#FFFFFF"/></g> </svg>
