<?xml version="1.0"?>
<svg xmlns="http://www.w3.org/2000/svg" height="512px" viewBox="-20 -23 644.00054 644" width="512px"><g><path d="m129.78125 159.578125c33.078125 0 59.898438-26.8125 59.898438-59.898437 0-33.078126-26.820313-59.898438-59.898438-59.898438s-59.898438 26.820312-59.898438 59.898438c.035157 33.070312 26.828126 59.871093 59.898438 59.898437zm0-99.828125c22.050781 0 39.933594 17.878906 39.933594 39.929688 0 22.058593-17.882813 39.933593-39.933594 39.933593-22.054688 0-39.933594-17.875-39.933594-39.933593 0-22.050782 17.878906-39.929688 39.933594-39.929688zm0 0" data-original="#000000" class="active-path" data-old_color="#000000" fill="#FFFFFF"/><path d="m119.796875 409.15625h19.96875v189.679688h-19.96875zm0 0" data-original="#000000" class="active-path" data-old_color="#000000" fill="#FFFFFF"/><path d="m603.75 69.730469h-114.578125v-39.933594h-149.746094v-4.988281c0-13.78125-11.171875-24.960938-24.957031-24.960938s-24.957031 11.179688-24.957031 24.960938v154.738281h-219.628907c-38.578124.042969-69.8398432 31.308594-69.882812 69.878906v99.832031c.0351562 27.558594 22.359375 49.886719 49.914062 49.917969h9.984376v199.660157h19.964843v-359.390626h-19.964843v139.761719h-9.984376c-16.539062 0-29.949218-13.402343-29.949218-29.949219v-99.832031c.035156-27.550781 22.359375-49.878906 49.917968-49.914062h269.542969v9.984375c0 16.542968-13.410156 29.949218-29.949219 29.949218h-129.78125v359.390626h19.96875v-339.425782h89.847657v339.425782h49.914062v-349.667969c12.523438-9.347657 19.921875-24.039063 19.96875-39.671875v-29.949219h-19.96875v-29.949219h99.832031v39.929688h164.492188l-23.957031-59.898438zm-284.289062 509.140625h-9.984376v-319.460938c3.355469.003906 6.699219-.324218 9.984376-.992187zm0-399.324219h-9.984376v-154.738281c0-2.753906 2.234376-4.992188 4.992188-4.992188s4.992188 2.238282 4.992188 4.992188zm19.964843-129.78125h129.78125v79.863281h-129.78125zm234.832031 119.796875h-115.035156v-19.964844h29.949219v-59.898437h85.085937l-15.972656 39.929687zm0 0" data-original="#000000" class="active-path" data-old_color="#000000" fill="#FFFFFF"/></g> </svg>
