<svg width="100" height="100" viewBox="0 0 100 100" fill="none" xmlns="http://www.w3.org/2000/svg">
<path d="M42.5 4.33013C47.141 1.65064 52.859 1.65064 57.5 4.33013L85.8013 20.6699C90.4423 23.3494 93.3013 28.3013 93.3013 33.6603V66.3397C93.3013 71.6987 90.4423 76.6506 85.8013 79.3301L57.5 95.6699C52.859 98.3494 47.141 98.3494 42.5 95.6699L14.1987 79.3301C9.55772 76.6506 6.69873 71.6987 6.69873 66.3397V33.6603C6.69873 28.3013 9.55771 23.3494 14.1987 20.6699L42.5 4.33013Z" fill="url(#paint0_linear)" stroke="#F2994A" stroke-width="2"/>
<path d="M65.8821 69.1087H34.7085C34.5206 69.1087 34.3404 69.0327 34.2075 68.8974C34.0746 68.7622 34 68.5787 34 68.3874V30.7213C34 30.53 34.0746 30.3465 34.2075 30.2113C34.3404 30.076 34.5206 30 34.7085 30H57.5927C57.6858 30.0023 57.7774 30.0232 57.8625 30.0616C57.9476 30.0999 58.0245 30.155 58.0887 30.2236L66.378 38.9657C66.5081 39.0953 66.5842 39.271 66.5905 39.4562V68.3802C66.5915 68.4755 66.5738 68.5701 66.5387 68.6584C66.5035 68.7468 66.4514 68.8271 66.3856 68.8949C66.3197 68.9626 66.2412 69.0164 66.1548 69.0531C66.0684 69.0898 65.9757 69.1087 65.8821 69.1087ZM35.417 67.6661H65.1736V39.7519L57.2952 31.4426H35.417V67.6661Z" fill="#222222"/>
<path d="M57.5929 40.1775C57.405 40.1775 57.2248 40.1015 57.0919 39.9662C56.959 39.831 56.8844 39.6475 56.8844 39.4562V30.7213C56.8844 30.53 56.959 30.3465 57.0919 30.2113C57.2248 30.076 57.405 30 57.5929 30C57.7808 30 57.961 30.076 58.0939 30.2113C58.2267 30.3465 58.3014 30.53 58.3014 30.7213V39.4562C58.3014 39.6475 58.2267 39.831 58.0939 39.9662C57.961 40.1015 57.7808 40.1775 57.5929 40.1775Z" fill="#222222"/>
<path d="M61.6312 40.1777H57.5928C57.4049 40.1777 57.2247 40.1017 57.0918 39.9665C56.959 39.8312 56.8843 39.6477 56.8843 39.4564C56.8843 39.2651 56.959 39.0817 57.0918 38.9464C57.2247 38.8111 57.4049 38.7351 57.5928 38.7351H61.6312C61.8191 38.7351 61.9993 38.8111 62.1322 38.9464C62.265 39.0817 62.3397 39.2651 62.3397 39.4564C62.3397 39.6477 62.265 39.8312 62.1322 39.9665C61.9993 40.1017 61.8191 40.1777 61.6312 40.1777ZM48.2337 45.1258H39.7955C39.6076 45.1258 39.4274 45.0498 39.2946 44.9146C39.1617 44.7793 39.087 44.5958 39.087 44.4045V35.85C39.087 35.6587 39.1617 35.4752 39.2946 35.3399C39.4274 35.2047 39.6076 35.1287 39.7955 35.1287H48.2337C48.4216 35.1287 48.6018 35.2047 48.7346 35.3399C48.8675 35.4752 48.9421 35.6587 48.9421 35.85V44.4045C48.9421 44.5958 48.8675 44.7793 48.7346 44.9146C48.6018 45.0498 48.4216 45.1258 48.2337 45.1258ZM40.504 43.6832H47.5252V36.5713H40.504V43.6832ZM60.8094 50.9972H39.7814C39.5935 50.9972 39.4133 50.9212 39.2804 50.7859C39.1475 50.6507 39.0729 50.4672 39.0729 50.2759C39.0729 50.0846 39.1475 49.9011 39.2804 49.7659C39.4133 49.6306 39.5935 49.5546 39.7814 49.5546H60.8094C60.9973 49.5546 61.1775 49.6306 61.3103 49.7659C61.4432 49.9011 61.5178 50.0846 61.5178 50.2759C61.5178 50.4672 61.4432 50.6507 61.3103 50.7859C61.1775 50.9212 60.9973 50.9972 60.8094 50.9972ZM60.8094 56.6594H39.7814C39.5935 56.6594 39.4133 56.5834 39.2804 56.4481C39.1475 56.3128 39.0729 56.1294 39.0729 55.9381C39.0729 55.7468 39.1475 55.5633 39.2804 55.428C39.4133 55.2928 39.5935 55.2168 39.7814 55.2168H60.8094C60.9973 55.2168 61.1775 55.2928 61.3103 55.428C61.4432 55.5633 61.5178 55.7468 61.5178 55.9381C61.5178 56.1294 61.4432 56.3128 61.3103 56.4481C61.1775 56.5834 60.9973 56.6594 60.8094 56.6594ZM60.8094 62.3288H39.7814C39.5935 62.3288 39.4133 62.2528 39.2804 62.1175C39.1475 61.9822 39.0729 61.7988 39.0729 61.6075C39.0729 61.4162 39.1475 61.2327 39.2804 61.0974C39.4133 60.9622 39.5935 60.8862 39.7814 60.8862H60.8094C60.9973 60.8862 61.1775 60.9622 61.3103 61.0974C61.4432 61.2327 61.5178 61.4162 61.5178 61.6075C61.5178 61.7988 61.4432 61.9822 61.3103 62.1175C61.1775 62.2528 60.9973 62.3288 60.8094 62.3288Z" fill="#222222"/>
<defs>
<linearGradient id="paint0_linear" x1="50" y1="0" x2="50" y2="100" gradientUnits="userSpaceOnUse">
<stop stop-color="#FFB16C"/>
<stop offset="1" stop-color="#EB872F"/>
</linearGradient>
</defs>
</svg>
