<svg width="100" height="100" viewBox="0 0 100 100" fill="none" xmlns="http://www.w3.org/2000/svg">
<path d="M42.5 4.33013C47.141 1.65064 52.859 1.65064 57.5 4.33013L85.8013 20.6699C90.4423 23.3494 93.3013 28.3013 93.3013 33.6603V66.3397C93.3013 71.6987 90.4423 76.6506 85.8013 79.3301L57.5 95.6699C52.859 98.3494 47.141 98.3494 42.5 95.6699L14.1987 79.3301C9.55772 76.6506 6.69873 71.6987 6.69873 66.3397V33.6603C6.69873 28.3013 9.55771 23.3494 14.1987 20.6699L42.5 4.33013Z" fill="url(#paint0_linear)" stroke="#F2994A" stroke-width="2"/>
<path d="M45.8606 37.9347L44.6167 39.3149L41.1873 41.3718C40.6334 41.7067 40.175 42.1785 39.8562 42.7417C39.5374 43.305 39.3688 43.9408 39.3668 44.5881V47.2638C39.3668 47.4716 39.4493 47.6708 39.5962 47.8177C39.7431 47.9646 39.9424 48.0471 40.1501 48.0471C40.3579 48.0471 40.5571 47.9646 40.704 47.8177C40.8509 47.6708 40.9335 47.4716 40.9335 47.2638V44.5881C40.9335 43.8267 41.3408 43.1092 41.9941 42.716L44.9191 40.9614L46.4732 42.904C46.5422 42.9899 46.6284 43.0604 46.7264 43.1109C46.8244 43.1613 46.9319 43.1906 47.0419 43.1969L47.0842 43.1985C47.291 43.1985 47.4915 43.1154 47.6388 42.9697L48.7605 41.8481V47.2654C48.7605 47.4731 48.8431 47.6724 48.99 47.8193C49.1369 47.9662 49.3361 48.0487 49.5439 48.0487C49.7516 48.0487 49.9509 47.9662 50.0978 47.8193C50.2447 47.6724 50.3272 47.4731 50.3272 47.2654V41.8214L51.474 42.9697C51.6213 43.1164 51.8207 43.1987 52.0286 43.1985L52.0709 43.1969C52.1811 43.1912 52.2887 43.1622 52.3868 43.1117C52.4849 43.0612 52.571 42.9903 52.6396 42.904L54.1906 40.9661L57.1062 42.716C57.761 43.1092 58.1668 43.8267 58.1668 44.5881V47.2638C58.1668 47.4716 58.2493 47.6708 58.3962 47.8177C58.5431 47.9646 58.7424 48.0471 58.9501 48.0471C59.1579 48.0471 59.3571 47.9646 59.504 47.8177C59.6509 47.6708 59.7335 47.4716 59.7335 47.2638V44.5881C59.7335 43.2784 59.0363 42.047 57.913 41.3718L54.5118 39.3305L53.2537 37.9347C53.177 37.8501 53.0704 37.8172 52.9702 37.7749V36.5937C53.551 36.1035 54.0183 35.4929 54.3397 34.8042C54.6611 34.1154 54.8288 33.3651 54.8314 32.6051V30.7831L55.6131 27.1689C55.6812 26.797 55.6742 26.4152 55.5924 26.0461C55.5106 25.6769 55.3557 25.3279 55.1369 25.0196C54.9208 24.7105 54.6448 24.448 54.3254 24.2475C54.0059 24.047 53.6495 23.9127 53.2772 23.8524L48.4112 23.0394C48.0092 22.9711 47.5972 22.9918 47.2042 23.1001C46.8111 23.2084 46.4466 23.4015 46.1364 23.666C45.6735 24.0582 45.3512 24.5906 45.2183 25.1825C44.621 25.3622 44.1147 25.7628 43.8023 26.3027C43.49 26.8426 43.3952 27.4812 43.5373 28.0885L44.2783 30.7956V32.6051C44.2812 33.3874 44.459 34.1591 44.7987 34.8639C45.1383 35.5686 45.6312 36.1885 46.2413 36.6782V37.72C46.0964 37.7535 45.9643 37.828 45.8606 37.9347ZM47.1484 41.2433L46.1332 39.9728L46.633 39.4182L48.2185 40.1734L47.1484 41.2433ZM51.9644 41.2418L50.8943 40.1734L52.4798 39.4182L52.9796 39.9728L51.9644 41.2418ZM45.2387 26.9747C45.3212 26.8716 45.4259 26.7885 45.5449 26.7316C45.664 26.6746 45.7944 26.6453 45.9264 26.6457C46.3588 26.6457 46.7098 26.2415 46.7098 25.8091C46.7104 25.6292 46.75 25.4515 46.8259 25.2883C46.9019 25.1251 47.0123 24.9804 47.1497 24.8641C47.287 24.7478 47.4479 24.6626 47.6214 24.6145C47.7948 24.5665 47.9766 24.5566 48.1542 24.5856L53.0203 25.3987C53.1876 25.4256 53.3478 25.4859 53.4912 25.5761C53.6347 25.6662 53.7585 25.7844 53.8553 25.9235C54.0559 26.207 54.1326 26.5501 54.0762 26.8666L53.6297 28.9267L53.2616 28.4677C53.1882 28.3762 53.0951 28.3024 52.9894 28.2517C52.8836 28.201 52.7678 28.1747 52.6506 28.1747H46.4575C46.3401 28.1745 46.2241 28.2009 46.1183 28.2519C46.0125 28.3029 45.9196 28.3772 45.8465 28.4692L45.4141 29.0081L45.0601 27.7188C45.0318 27.5893 45.0332 27.4552 45.0641 27.3263C45.095 27.1974 45.1547 27.0772 45.2387 26.9747ZM45.845 30.9727L46.8335 29.7429H52.2761L53.2647 30.9711V32.6051C53.2647 34.6511 51.5993 36.3148 49.5548 36.3148C47.5103 36.3148 45.8465 34.6495 45.8465 32.6051V30.9727H45.845ZM49.5548 37.8814C50.2081 37.8814 50.8254 37.7467 51.4035 37.5289V38.1963L49.5564 39.0752L47.808 38.2433V37.5618C48.3677 37.7674 48.9586 37.8755 49.5548 37.8814ZM41.7168 62.9503C41.8587 62.9511 41.9981 62.9126 42.1194 62.839L49.5501 58.3805L56.9808 62.839C57.1583 62.9313 57.3642 62.9523 57.5567 62.8979C57.7491 62.8434 57.9135 62.7176 58.0162 62.546C58.119 62.3745 58.1524 62.1702 58.1096 61.9748C58.0669 61.7795 57.9512 61.6078 57.7861 61.4949L50.3335 57.0238V50.4174C50.3335 50.2097 50.2509 50.0104 50.104 49.8635C49.9571 49.7166 49.7579 49.6341 49.5501 49.6341C49.3424 49.6341 49.1431 49.7166 48.9962 49.8635C48.8493 50.0104 48.7668 50.2097 48.7668 50.4174V57.0238L41.3142 61.4949C41.1671 61.5829 41.053 61.7168 40.9893 61.8759C40.9256 62.035 40.9158 62.2106 40.9615 62.3758C41.0072 62.541 41.1059 62.6866 41.2423 62.7904C41.3787 62.8942 41.5454 62.9503 41.7168 62.9503ZM28.1683 64.0673C27.5329 64.3083 26.9855 64.7364 26.5984 65.2949C26.2113 65.8535 26.0027 66.5162 26 67.1958V69.2167C26 69.4244 26.0825 69.6237 26.2294 69.7706C26.3763 69.9175 26.5756 70 26.7833 70C26.9911 70 27.1903 69.9175 27.3372 69.7706C27.4841 69.6237 27.5667 69.4244 27.5667 69.2167V67.1958C27.5667 66.4595 28.0304 65.7921 28.7182 65.532L31.5162 64.4824C31.9925 65.2673 32.8495 65.7999 33.8333 65.7999C34.8172 65.7999 35.6726 65.2688 36.1489 64.4824L38.9485 65.532C39.6363 65.7921 40.1 66.4595 40.1 67.1958V69.2167C40.1 69.4244 40.1825 69.6237 40.3294 69.7706C40.4763 69.9175 40.6756 70 40.8833 70C41.0911 70 41.2903 69.9175 41.4372 69.7706C41.5841 69.6237 41.6667 69.4244 41.6667 69.2167V67.1958C41.6667 65.8109 40.7956 64.5529 39.4984 64.0673L36.5484 62.9612V61.6296C36.9418 61.2598 37.2556 60.8135 37.4703 60.3181C37.685 59.8227 37.7962 59.2886 37.797 58.7486V57.2713L38.538 54.5548C38.5937 54.2514 38.5884 53.94 38.5222 53.6387C38.456 53.3374 38.3304 53.0523 38.1526 52.8002C37.9757 52.5465 37.7496 52.3308 37.4878 52.1661C37.2259 52.0014 36.9336 51.891 36.6283 51.8414L32.9842 51.2336C32.426 51.1415 31.8534 51.2583 31.3759 51.5618C30.8985 51.8652 30.5496 52.334 30.3961 52.8785C30.0483 53.0055 29.7418 53.2249 29.5093 53.513C29.1224 53.994 28.9735 54.6128 29.1474 55.3538L29.8368 57.005V58.7486C29.8368 59.8985 30.335 60.9278 31.1167 61.6562V62.9612L28.1683 64.0673ZM31.4034 58.7486V57.5752C31.4113 57.5643 31.4238 57.5596 31.4316 57.547L31.9471 56.6431H35.7149L36.2319 57.4013V58.7486C36.2319 60.0802 35.1493 61.1628 33.8177 61.1628C32.486 61.1628 31.4034 60.0802 31.4034 58.7486ZM30.7282 54.4968C30.7715 54.4425 30.8266 54.3988 30.8893 54.3689C30.952 54.3391 31.0207 54.3239 31.0901 54.3245C31.5225 54.3245 31.8734 53.9344 31.8734 53.5021C31.8727 53.3958 31.8955 53.2907 31.9402 53.1943C31.9849 53.0978 32.0504 53.0125 32.1319 52.9443C32.213 52.875 32.3084 52.8244 32.4114 52.7962C32.5143 52.7681 32.6222 52.763 32.7273 52.7814L36.3713 53.3893C36.4713 53.4055 36.567 53.4418 36.6526 53.4959C36.7382 53.55 36.812 53.6208 36.8695 53.7041C36.9764 53.8501 37.0265 54.03 37.0105 54.2102L36.7035 55.3334C36.6303 55.2533 36.5413 55.1893 36.442 55.1456C36.3427 55.1019 36.2354 55.0794 36.1269 55.0796H31.4896C31.3651 55.0794 31.2424 55.109 31.1317 55.166C31.0211 55.2229 30.9257 55.3056 30.8535 55.407L30.6342 54.8916C30.6193 54.823 30.62 54.7519 30.6362 54.6835C30.6525 54.6152 30.6839 54.5514 30.7282 54.4968ZM33.8177 62.7294C34.2266 62.7294 34.612 62.6495 34.9833 62.5351V63.0834C34.9723 63.3808 34.8464 63.6624 34.6321 63.869C34.4178 64.0755 34.1318 64.1909 33.8341 64.1909C33.5365 64.1909 33.2504 64.0755 33.0361 63.869C32.8218 63.6624 32.696 63.3808 32.685 63.0834V62.5461C33.0453 62.6542 33.4213 62.7294 33.8177 62.7294ZM72.2167 70C72.4244 70 72.6237 69.9175 72.7706 69.7706C72.9175 69.6237 73 69.4244 73 69.2167V67.1958C73 65.8109 72.1289 64.5529 70.8317 64.0673L68.2702 63.1069L67.8833 62.5069V61.6296C68.2767 61.2598 68.5905 60.8135 68.8052 60.3181C69.0199 59.8227 69.1311 59.2886 69.1319 58.7486V57.2713L69.8729 54.5548C69.9286 54.2514 69.9233 53.94 69.8571 53.6387C69.7909 53.3374 69.6653 53.0523 69.4875 52.8002C69.3106 52.5465 69.0845 52.3308 68.8227 52.1661C68.5608 52.0014 68.2685 51.891 67.9632 51.8414L64.3191 51.2336C63.99 51.179 63.653 51.1965 63.3314 51.285C63.0098 51.3734 62.7112 51.5307 62.4563 51.7459C62.1038 52.0435 61.8547 52.4336 61.731 52.8785C61.3832 53.0055 61.0767 53.2249 60.8442 53.513C60.4573 53.994 60.3084 54.6128 60.4823 55.3538L61.1717 57.005V58.7486C61.1717 59.8985 61.6699 60.9278 62.4516 61.6562V62.5069L62.0647 63.1054L59.5032 64.0657C58.8678 64.3068 58.3204 64.7348 57.9333 65.2934C57.5462 65.8519 57.3376 66.5147 57.3349 67.1942V69.2151C57.3349 69.4229 57.4174 69.6221 57.5643 69.769C57.7112 69.9159 57.9105 69.9984 58.1182 69.9984C58.326 69.9984 58.5252 69.9159 58.6721 69.769C58.819 69.6221 58.9016 69.4229 58.9016 69.2151V68.001L60.639 65.3111L62.8527 64.4808C63.329 65.2657 64.1859 65.7984 65.1698 65.7984C66.1537 65.7984 67.0091 65.2673 67.4853 64.4808L69.699 65.3096L71.438 68.001V69.2167C71.4333 69.6491 71.7843 70 72.2167 70ZM62.7368 58.7486V57.5752C62.7446 57.5643 62.7571 57.5596 62.765 57.547L63.2804 56.6431H67.0482L67.5652 57.4013V58.7486C67.5652 60.0802 66.4827 61.1628 65.151 61.1628C63.8193 61.1628 62.7368 60.0802 62.7368 58.7486ZM62.0615 54.4968C62.1048 54.4425 62.1599 54.3988 62.2226 54.3689C62.2853 54.3391 62.354 54.3239 62.4234 54.3245C62.8558 54.3245 63.2068 53.9344 63.2068 53.5021C63.2061 53.3958 63.2289 53.2907 63.2736 53.1943C63.3183 53.0978 63.3837 53.0125 63.4653 52.9443C63.5464 52.875 63.6418 52.8244 63.7447 52.7962C63.8476 52.7681 63.9555 52.763 64.0606 52.7814L67.7047 53.3893C67.8046 53.4055 67.9003 53.4418 67.9859 53.4959C68.0715 53.55 68.1453 53.6208 68.2029 53.7041C68.3097 53.8501 68.3598 54.03 68.3439 54.2102L68.0368 55.3334C67.9637 55.2533 67.8746 55.1893 67.7753 55.1456C67.6761 55.1019 67.5687 55.0794 67.4603 55.0796H62.8229C62.6985 55.0794 62.5757 55.109 62.4651 55.166C62.3544 55.2229 62.259 55.3056 62.1869 55.407L61.9675 54.8916C61.9526 54.823 61.9533 54.7519 61.9696 54.6835C61.9858 54.6152 62.0173 54.5514 62.0615 54.4968ZM65.1667 64.2333C64.8617 64.2333 64.5692 64.1122 64.3535 63.8965C64.1379 63.6809 64.0167 63.3884 64.0167 63.0834V62.5461C64.3786 62.6542 64.7546 62.7309 65.151 62.7309C65.5599 62.7309 65.9453 62.651 66.3166 62.5367V63.085C66.3162 63.3897 66.1949 63.6818 65.9792 63.8971C65.7636 64.1124 65.4714 64.2333 65.1667 64.2333Z" fill="black" fill-opacity="0.86"/>
<defs>
<linearGradient id="paint0_linear" x1="50" y1="0" x2="50" y2="100" gradientUnits="userSpaceOnUse">
<stop stop-color="#FFB16C"/>
<stop offset="1" stop-color="#EB872F"/>
</linearGradient>
</defs>
</svg>
