<svg width="100" height="100" viewBox="0 0 100 100" fill="none" xmlns="http://www.w3.org/2000/svg">
<path d="M42.5 4.33013C47.141 1.65064 52.859 1.65064 57.5 4.33013L85.8013 20.6699C90.4423 23.3494 93.3013 28.3013 93.3013 33.6603V66.3397C93.3013 71.6987 90.4423 76.6506 85.8013 79.3301L57.5 95.6699C52.859 98.3494 47.141 98.3494 42.5 95.6699L14.1987 79.3301C9.55772 76.6506 6.69873 71.6987 6.69873 66.3397V33.6603C6.69873 28.3013 9.55771 23.3494 14.1987 20.6699L42.5 4.33013Z" fill="url(#paint0_linear)" stroke="#F2994A" stroke-width="2"/>
<path d="M38.5538 59.6919H33.4034C30.8318 59.6919 28.75 61.5531 28.75 63.8472V66.906H46.5928" stroke="#47484E" stroke-width="1.5" stroke-linecap="round" stroke-linejoin="round"/>
<path d="M51.2822 59.6919H45.5555" stroke="#47484E" stroke-width="1.5" stroke-linecap="round" stroke-linejoin="round"/>
<path d="M45.3177 57.5279V59.8725C45.3177 60.59 45.0331 61.2781 44.5265 61.7854C44.0199 62.2927 43.3328 62.5778 42.6164 62.5778H41.5359C40.8194 62.5778 40.1324 62.2927 39.6258 61.7854C39.1192 61.2781 38.8346 60.59 38.8346 59.8725V57.5279M31.8113 44.6075C31.2985 44.7361 30.8506 45.0485 30.5523 45.4856C30.254 45.9227 30.1261 46.4541 30.1926 46.9793C30.2592 47.5045 30.5156 47.987 30.9135 48.3356C31.3113 48.6842 31.8229 48.8747 32.3515 48.871L31.8113 44.6075ZM50.5617 35.7053C49.866 34.8605 48.9926 34.18 48.0039 33.7123C47.0152 33.2447 45.9356 33.0015 44.8422 33H39.31C38.3158 33.0094 37.3332 33.2149 36.4182 33.6047C35.5033 33.9944 34.674 34.5609 33.9777 35.2716C33.2814 35.9824 32.7316 36.8236 32.3599 37.7471C31.9882 38.6706 31.8018 39.6585 31.8113 40.6541L32.3515 46.9809L50.5617 35.7053Z" stroke="#47484E" stroke-width="1.5" stroke-linecap="round" stroke-linejoin="round"/>
<path d="M56.447 59.6921H51.4047C48.8402 59.6921 46.7585 61.4379 46.7585 63.6022V67H71.25V63.1549C71.25 61.2432 69.4059 59.6921 67.1296 59.6921H61.511M48.6746 40.1347C45.8724 40.3584 41.7161 42.0753 38.489 42.0753C33.1224 42.0753 32.3517 37.3285 32.3517 42.6092V47.0386C32.4857 49.8735 33.5319 52.5889 35.3339 54.7793C36.7746 56.5035 39.339 57.5279 42.0763 57.5279C44.8135 57.5279 47.3924 56.5107 48.8186 54.7793L48.6746 40.1347ZM64.4212 55.3637L69.089 55.3637V40.0914C68.7648 35.3446 64.0466 33 59.0042 33C53.9619 33 49.2436 35.3446 48.9195 40.0914V55.3637H53.3352H64.4212Z" stroke="#47484E" stroke-width="1.5" stroke-linecap="round" stroke-linejoin="round"/>
<path d="M61.1652 57.5281V59.9664C61.1652 60.5404 60.9375 61.0909 60.5322 61.4968C60.127 61.9026 59.5773 62.1307 59.0042 62.1307V62.1307C58.431 62.1307 57.8814 61.9026 57.4761 61.4968C57.0708 61.0909 56.8431 60.5404 56.8431 59.9664V57.5281" stroke="#47484E" stroke-width="1.5" stroke-linecap="round" stroke-linejoin="round"/>
<path d="M67.6483 64.8357V66.4589" stroke="#47484E" stroke-width="1.5" stroke-linecap="round" stroke-linejoin="round"/>
<path d="M50.3602 64.8357V66.4589" stroke="#47484E" stroke-width="1.5" stroke-linecap="round" stroke-linejoin="round"/>
<path d="M67.2017 48.8707C67.7222 48.803 68.2003 48.5478 68.5468 48.1529C68.8932 47.7579 69.0843 47.2502 69.0843 46.7245C69.0843 46.1988 68.8932 45.6911 68.5468 45.2962C68.2003 44.9012 67.7222 44.6461 67.2017 44.5783V48.8707ZM50.7635 44.5423C50.2622 44.6139 49.802 44.8596 49.4631 45.2364C49.1242 45.6133 48.9282 46.0973 48.9093 46.6041C48.8905 47.1109 49.0499 47.6083 49.3598 48.0093C49.6698 48.4104 50.1105 48.6897 50.6051 48.7986L50.7635 44.5423ZM59.0042 57.5276C57.9588 57.5277 56.9237 57.3205 55.9586 56.9181C54.9934 56.5157 54.1174 55.926 53.3808 55.183C52.6443 54.44 52.0618 53.5584 51.667 52.5889C51.2722 51.6195 51.0729 50.5814 51.0805 49.5344V42.3203C51.0795 42.0105 51.1395 41.7036 51.257 41.417C51.3745 41.1304 51.5472 40.8699 51.7653 40.6501C51.9834 40.4304 52.2425 40.2559 52.5279 40.1364C52.8133 40.017 53.1195 39.955 53.4288 39.9541L54.747 40.3292C57.5292 41.1271 60.4792 41.1271 63.2614 40.3292L64.5796 39.9541C65.2031 39.956 65.8004 40.2054 66.2406 40.6476C66.6808 41.0898 66.9279 41.6887 66.9279 42.3131V49.5272C66.9365 50.5748 66.7379 51.6136 66.3435 52.5839C65.9491 53.5542 65.3668 54.4367 64.6302 55.1805C63.8935 55.9242 63.0171 56.5146 62.0515 56.9174C61.0859 57.3203 60.0502 57.5277 59.0042 57.5276V57.5276Z" stroke="#47484E" stroke-width="1.5" stroke-linecap="round" stroke-linejoin="round"/>
<path d="M59.0043 66.6392V62.1304" stroke="#47484E" stroke-width="1.5" stroke-linecap="round" stroke-linejoin="round"/>
<path d="M32.3517 64.8357V66.4589" stroke="#47484E" stroke-width="1.5" stroke-linecap="round" stroke-linejoin="round"/>
<defs>
<linearGradient id="paint0_linear" x1="50" y1="0" x2="50" y2="100" gradientUnits="userSpaceOnUse">
<stop stop-color="#FFB16C"/>
<stop offset="1" stop-color="#EB872F"/>
</linearGradient>
</defs>
</svg>
