<svg width="100" height="100" viewBox="0 0 100 100" fill="none" xmlns="http://www.w3.org/2000/svg">
<path d="M42.5 4.33013C47.141 1.65064 52.859 1.65064 57.5 4.33013L85.8013 20.6699C90.4423 23.3494 93.3013 28.3013 93.3013 33.6603V66.3397C93.3013 71.6987 90.4423 76.6506 85.8013 79.3301L57.5 95.6699C52.859 98.3494 47.141 98.3494 42.5 95.6699L14.1987 79.3301C9.55772 76.6506 6.69873 71.6987 6.69873 66.3397V33.6603C6.69873 28.3013 9.55771 23.3494 14.1987 20.6699L42.5 4.33013Z" fill="url(#paint0_linear)" stroke="#F2994A" stroke-width="2"/>
<path d="M37.0003 43.4282H33.0645C32.8848 43.4282 32.7125 43.4955 32.5855 43.6154C32.4585 43.7352 32.3871 43.8977 32.3871 44.0672V47.7797C32.3871 47.9491 32.4585 48.1117 32.5855 48.2315C32.7125 48.3513 32.8848 48.4186 33.0645 48.4186H37.0003C37.18 48.4186 37.3523 48.3513 37.4793 48.2315C37.6064 48.1117 37.6777 47.9491 37.6777 47.7797V44.0672C37.6777 43.8977 37.6064 43.7352 37.4793 43.6154C37.3523 43.4955 37.18 43.4282 37.0003 43.4282ZM36.3229 47.1407H33.7419V44.7062H36.3229V47.1407ZM37.0003 50.3228H33.0645C32.8848 50.3228 32.7125 50.3901 32.5855 50.5099C32.4585 50.6298 32.3871 50.7923 32.3871 50.9618V54.6742C32.3871 54.8437 32.4585 55.0062 32.5855 55.1261C32.7125 55.2459 32.8848 55.3132 33.0645 55.3132H37.0003C37.18 55.3132 37.3523 55.2459 37.4793 55.1261C37.6064 55.0062 37.6777 54.8437 37.6777 54.6742V50.9618C37.6777 50.7923 37.6064 50.6298 37.4793 50.5099C37.3523 50.3901 37.18 50.3228 37.0003 50.3228ZM36.3229 54.0353H33.7419V51.6007H36.3229V54.0353ZM37.0003 56.6934H33.0645C32.8848 56.6934 32.7125 56.7607 32.5855 56.8806C32.4585 57.0004 32.3871 57.1629 32.3871 57.3324V61.0448C32.3871 61.2143 32.4585 61.3768 32.5855 61.4967C32.7125 61.6165 32.8848 61.6838 33.0645 61.6838H37.0003C37.18 61.6838 37.3523 61.6165 37.4793 61.4967C37.6064 61.3768 37.6777 61.2143 37.6777 61.0448V57.3324C37.6777 57.1629 37.6064 57.0004 37.4793 56.8806C37.3523 56.7607 37.18 56.6934 37.0003 56.6934ZM36.3229 60.4059H33.7419V57.9714H36.3229V60.4059ZM41.871 44.5848L40.5161 45.9011L40.0419 45.5049C39.9789 45.445 39.904 45.3975 39.8215 45.365C39.7389 45.3326 39.6504 45.3159 39.561 45.3159C39.4715 45.3159 39.383 45.3326 39.3004 45.365C39.2179 45.3975 39.143 45.445 39.08 45.5049C38.9538 45.6246 38.883 45.7866 38.883 45.9554C38.883 46.1242 38.9538 46.2861 39.08 46.4059L40.0216 47.2876C40.1485 47.4067 40.3202 47.4735 40.4992 47.4735C40.6781 47.4735 40.8498 47.4067 40.9768 47.2876L42.8532 45.5049C42.9167 45.4455 42.9671 45.3748 43.0015 45.297C43.0359 45.2191 43.0536 45.1356 43.0536 45.0512C43.0536 44.9669 43.0359 44.8834 43.0015 44.8055C42.9671 44.7276 42.9167 44.657 42.8532 44.5976C42.7909 44.5339 42.7154 44.4829 42.6315 44.4476C42.5475 44.4123 42.4569 44.3934 42.365 44.3923C42.2731 44.3911 42.1819 44.4075 42.097 44.4406C42.0121 44.4737 41.9352 44.5228 41.871 44.5848ZM41.871 51.4857L40.5161 52.802L40.0622 52.3675C39.9991 52.3079 39.9241 52.2607 39.8416 52.2284C39.7591 52.1962 39.6706 52.1796 39.5813 52.1796C39.492 52.1796 39.4035 52.1962 39.321 52.2284C39.2385 52.2607 39.1635 52.3079 39.1003 52.3675C39.0371 52.4271 38.987 52.4978 38.9529 52.5757C38.9187 52.6535 38.9011 52.7369 38.9011 52.8212C38.9011 52.9054 38.9187 52.9889 38.9529 53.0667C38.987 53.1446 39.0371 53.2153 39.1003 53.2749L40.0419 54.1567C40.1688 54.2757 40.3405 54.3425 40.5195 54.3425C40.6985 54.3425 40.8702 54.2757 40.9971 54.1567L42.8735 52.3867C43.0002 52.2613 43.0689 52.0936 43.0644 51.9204C43.06 51.7472 42.9828 51.5828 42.8498 51.4634C42.7169 51.3439 42.5391 51.2791 42.3555 51.2833C42.1719 51.2875 41.9976 51.3603 41.871 51.4857ZM41.871 57.8499L40.5161 59.1662L40.0622 58.7381C39.9993 58.6782 39.9243 58.6307 39.8418 58.5983C39.7592 58.5658 39.6707 58.5491 39.5813 58.5491C39.4919 58.5491 39.4033 58.5658 39.3208 58.5983C39.2382 58.6307 39.1633 58.6782 39.1003 58.7381C38.9741 58.8578 38.9033 59.0198 38.9033 59.1886C38.9033 59.3574 38.9741 59.5194 39.1003 59.6391L40.0419 60.5209C40.1688 60.6399 40.3405 60.7067 40.5195 60.7067C40.6985 60.7067 40.8702 60.6399 40.9971 60.5209L42.8735 58.7573C42.937 58.6979 42.9874 58.6272 43.0218 58.5494C43.0562 58.4715 43.0739 58.388 43.0739 58.3036C43.0739 58.2193 43.0562 58.1358 43.0218 58.0579C42.9874 57.98 42.937 57.9093 42.8735 57.8499C42.81 57.7841 42.7327 57.7314 42.6463 57.6954C42.56 57.6594 42.4666 57.6408 42.3722 57.6408C42.2778 57.6408 42.1845 57.6594 42.0982 57.6954C42.0118 57.7314 41.9344 57.7841 41.871 57.8499ZM52.8993 45.5496H45.0277C44.8481 45.5496 44.6758 45.6169 44.5487 45.7368C44.4217 45.8566 44.3503 46.0191 44.3503 46.1886C44.3503 46.3581 44.4217 46.5206 44.5487 46.6404C44.6758 46.7603 44.8481 46.8276 45.0277 46.8276H52.8993C53.079 46.8276 53.2513 46.7603 53.3784 46.6404C53.5054 46.5206 53.5768 46.3581 53.5768 46.1886C53.5768 46.0191 53.5054 45.8566 53.3784 45.7368C53.2513 45.6169 53.079 45.5496 52.8993 45.5496ZM52.8993 52.4442H45.0277C44.8481 52.4442 44.6758 52.5115 44.5487 52.6313C44.4217 52.7512 44.3503 52.9137 44.3503 53.0832C44.3503 53.2526 44.4217 53.4152 44.5487 53.535C44.6758 53.6548 44.8481 53.7222 45.0277 53.7222H52.8993C53.079 53.7222 53.2513 53.6548 53.3784 53.535C53.5054 53.4152 53.5768 53.2526 53.5768 53.0832C53.5768 52.9137 53.5054 52.7512 53.3784 52.6313C53.2513 52.5115 53.079 52.4442 52.8993 52.4442ZM52.8993 58.8148H45.0277C44.8481 58.8148 44.6758 58.8821 44.5487 59.002C44.4217 59.1218 44.3503 59.2843 44.3503 59.4538C44.3503 59.6233 44.4217 59.7858 44.5487 59.9056C44.6758 60.0254 44.8481 60.0928 45.0277 60.0928H52.8993C53.079 60.0928 53.2513 60.0254 53.3784 59.9056C53.5054 59.7858 53.5768 59.6233 53.5768 59.4538C53.5768 59.2843 53.5054 59.1218 53.3784 59.002C53.2513 58.8821 53.079 58.8148 52.8993 58.8148Z" fill="black"/>
<path d="M70.3226 35H29.6774C29.4978 35 29.3255 35.0673 29.1984 35.1872C29.0714 35.307 29 35.4695 29 35.639V64.361C29 64.5305 29.0714 64.693 29.1984 64.8128C29.3255 64.9327 29.4978 65 29.6774 65H70.3226C70.5022 65 70.6745 64.9327 70.8016 64.8128C70.9286 64.693 71 64.5305 71 64.361V35.639C71 35.4695 70.9286 35.307 70.8016 35.1872C70.6745 35.0673 70.5022 35 70.3226 35ZM69.6452 36.278V40.393H30.3548V36.278H69.6452ZM30.3548 63.722V41.6709H69.6452V63.722H30.3548Z" fill="black"/>
<path d="M66.9354 43.5877H56.0967C55.9171 43.5877 55.7448 43.6551 55.6177 43.7749C55.4907 43.8947 55.4193 44.0572 55.4193 44.2267V60.8401C55.4193 61.0096 55.4907 61.1721 55.6177 61.292C55.7448 61.4118 55.9171 61.4791 56.0967 61.4791H66.9354C67.1151 61.4791 67.2874 61.4118 67.4145 61.292C67.5415 61.1721 67.6129 61.0096 67.6129 60.8401V44.2267C67.6129 44.0572 67.5415 43.8947 67.4145 43.7749C67.2874 43.6551 67.1151 43.5877 66.9354 43.5877ZM66.258 60.2011H56.7742V44.8657H66.258V60.2011ZM32.1635 39.0382H37.3119C37.4916 39.0382 37.6639 38.9709 37.7909 38.8511C37.9179 38.7312 37.9893 38.5687 37.9893 38.3992C37.9893 38.2298 37.9179 38.0672 37.7909 37.9474C37.6639 37.8276 37.4916 37.7603 37.3119 37.7603H32.1635C31.9838 37.7603 31.8115 37.8276 31.6845 37.9474C31.5575 38.0672 31.4861 38.2298 31.4861 38.3992C31.4861 38.5687 31.5575 38.7312 31.6845 38.8511C31.8115 38.9709 31.9838 39.0382 32.1635 39.0382Z" fill="black"/>
<path d="M60.2629 58.9552H62.7693C62.949 58.9552 63.1213 58.8879 63.2483 58.768C63.3754 58.6482 63.4467 58.4857 63.4467 58.3162C63.4467 58.1468 63.3754 57.9842 63.2483 57.8644C63.1213 57.7446 62.949 57.6772 62.7693 57.6772H60.2629C60.0832 57.6772 59.9109 57.7446 59.7839 57.8644C59.6568 57.9842 59.5854 58.1468 59.5854 58.3162C59.5854 58.4857 59.6568 58.6482 59.7839 58.768C59.9109 58.8879 60.0832 58.9552 60.2629 58.9552Z" fill="black"/>
<defs>
<linearGradient id="paint0_linear" x1="50" y1="0" x2="50" y2="100" gradientUnits="userSpaceOnUse">
<stop stop-color="#FFB16C"/>
<stop offset="1" stop-color="#EB872F"/>
</linearGradient>
</defs>
</svg>
