<svg width="100" height="100" viewBox="0 0 100 100" fill="none" xmlns="http://www.w3.org/2000/svg">
<path d="M42.5 4.33013C47.141 1.65064 52.859 1.65064 57.5 4.33013L85.8013 20.6699C90.4423 23.3494 93.3013 28.3013 93.3013 33.6603V66.3397C93.3013 71.6987 90.4423 76.6506 85.8013 79.3301L57.5 95.6699C52.859 98.3494 47.141 98.3494 42.5 95.6699L14.1987 79.3301C9.55772 76.6506 6.69873 71.6987 6.69873 66.3397V33.6603C6.69873 28.3013 9.55771 23.3494 14.1987 20.6699L42.5 4.33013Z" fill="url(#paint0_linear)" stroke="#F2994A" stroke-width="2"/>
<path d="M60.8333 71.6667C60.8333 69.3681 59.9202 67.1637 58.2949 65.5384C56.6696 63.9131 54.4652 63 52.1666 63V60.8333C54.6638 60.833 57.0843 59.9704 59.0188 58.3912C60.9533 56.812 62.2831 54.6132 62.7833 52.1667H65.1666C66.8905 52.1667 68.5438 51.4818 69.7628 50.2629C70.9818 49.0439 71.6666 47.3906 71.6666 45.6667V34.8333H67.3333C65.6693 34.8333 64.1483 35.4595 63 36.4887V30.5H39.1666V36.4887C37.9761 35.4208 36.4326 34.8311 34.8333 34.8333H30.5V45.6667C30.5 47.3906 31.1848 49.0439 32.4038 50.2629C33.6228 51.4818 35.2761 52.1667 37 52.1667H39.3833C39.8835 54.6132 41.2133 56.812 43.1478 58.3912C45.0823 59.9704 47.5028 60.833 50 60.8333V63C47.7014 63 45.497 63.9131 43.8717 65.5384C42.2464 67.1637 41.3333 69.3681 41.3333 71.6667H60.8333ZM50 65.1667H52.1666C53.5113 65.1663 54.823 65.5828 55.9211 66.3589C57.0193 67.1349 57.8498 68.2323 58.2983 69.5H43.8683C44.3168 68.2323 45.1473 67.1349 46.2454 66.3589C47.3436 65.5828 48.6553 65.1663 50 65.1667ZM41.3333 32.6667H60.8333V50C60.8333 52.2985 59.9202 54.5029 58.2949 56.1283C56.6696 57.7536 54.4652 58.6667 52.1666 58.6667H50C47.7014 58.6667 45.497 57.7536 43.8717 56.1283C42.2464 54.5029 41.3333 52.2985 41.3333 50V32.6667ZM32.6666 45.6667V37H34.8333C35.9826 37 37.0848 37.4565 37.8974 38.2692C38.7101 39.0819 39.1666 40.1841 39.1666 41.3333V50H37C35.8507 50 34.7485 49.5435 33.9358 48.7308C33.1232 47.9181 32.6666 46.8159 32.6666 45.6667ZM69.5 45.6667C69.5 46.8159 69.0434 47.9181 68.2308 48.7308C67.4181 49.5435 66.3159 50 65.1666 50H63V41.3333C63 40.1841 63.4565 39.0819 64.2692 38.2692C65.0818 37.4565 66.184 37 67.3333 37H69.5V45.6667Z" fill="black"/>
<defs>
<linearGradient id="paint0_linear" x1="50" y1="0" x2="50" y2="100" gradientUnits="userSpaceOnUse">
<stop stop-color="#FFB16C"/>
<stop offset="1" stop-color="#EB872F"/>
</linearGradient>
</defs>
</svg>
