<?xml version="1.0" encoding="utf-8"?>
<svg viewBox="68.755 87.759 86.602 95.359" xmlns="http://www.w3.org/2000/svg">
  <defs>
    <linearGradient id="paint0_linear" x1="50" y1="0" x2="50" y2="100" gradientUnits="userSpaceOnUse">
      <stop stop-color="#FFB16C"/>
      <stop offset="1" stop-color="#EB872F"/>
    </linearGradient>
  </defs>
  <path d="M92.5 54.3301C97.141 51.6506 102.859 51.6506 107.5 54.3301L135.801 70.6699C140.442 73.3494 143.301 78.3013 143.301 83.6603V116.34C143.301 121.699 140.442 126.651 135.801 129.33L107.5 145.67C102.859 148.349 97.141 148.349 92.5 145.67L64.1987 129.33C59.5577 126.651 56.6987 121.699 56.6987 116.34V83.6603C56.6987 78.3013 59.5577 73.3494 64.1987 70.6699L92.5 54.3301Z" fill="url(#paint0_linear)" stroke="#F2994A" stroke-width="2" transform="matrix(1, 0, 0, 1, 12.056029, 35.43895)"/>
  <path d="M106.499 79.9524C106.495 79.9445 106.491 79.9389 106.488 79.931C104.856 76.595 102.693 73.5019 100.028 70.773C99.9216 70.6652 99.7781 70.6043 99.6273 70.6045C99.4757 70.604 99.3145 70.678 99.2263 70.7742C96.5517 73.5121 94.3789 76.6119 92.7367 79.9546C92.7343 79.9601 92.7311 79.9649 92.7279 79.9712C90.3819 84.7513 89.1279 90.0304 89.1195 95.4885C89.1175 96.8138 89.1916 98.1262 89.3325 99.4243C86.5919 102.266 85.0745 105.983 85.0684 109.935C85.0648 112.235 85.5796 114.462 86.5977 116.554C86.6973 116.759 86.9106 116.883 87.1384 116.868C87.2773 116.859 87.4044 116.798 87.4989 116.704C87.5593 116.643 87.6063 116.568 87.635 116.484C88.48 113.962 90.1815 111.849 92.4485 110.461C92.5568 110.692 92.6541 110.926 92.7672 111.155C92.9025 111.427 93.2284 111.541 93.5048 111.414C94.0297 111.171 94.5641 110.966 95.104 110.789L95.5815 112.472C95.666 112.768 95.9728 112.939 96.2697 112.858C97.3716 112.552 98.4805 112.395 99.5661 112.394C100.652 112.392 101.76 112.545 102.861 112.848C103.063 112.903 103.269 112.841 103.408 112.702C103.473 112.637 103.524 112.554 103.55 112.46L104.033 110.777C104.572 110.953 105.103 111.156 105.626 111.396C105.845 111.497 106.096 111.445 106.258 111.283C106.3 111.24 106.337 111.191 106.365 111.135C106.493 110.877 106.605 110.615 106.726 110.355C109.059 111.734 110.809 113.876 111.662 116.447C111.734 116.664 111.928 116.814 112.156 116.829C112.32 116.839 112.477 116.778 112.59 116.665C112.633 116.621 112.669 116.571 112.698 116.514C113.722 114.417 114.243 112.189 114.247 109.889C114.253 105.855 112.692 102.065 109.851 99.2101C109.983 97.9704 110.059 96.7188 110.06 95.4547C110.066 89.999 108.829 84.7245 106.499 79.9524ZM113.122 109.892C113.12 111.579 112.815 113.226 112.216 114.805C111.178 112.556 109.487 110.678 107.336 109.398C108.529 106.638 109.362 103.765 109.819 100.836C111.963 103.363 113.128 106.537 113.122 109.892ZM105.066 79.6039L94.1577 79.6207C95.6054 76.8656 97.4337 74.2924 99.6236 71.9758C101.806 74.2857 103.627 76.8532 105.066 79.6039ZM87.0804 114.843C86.4853 113.268 86.1863 111.621 86.1889 109.933C86.194 106.578 87.3694 103.4 89.5207 100.867C89.5293 100.926 89.5443 100.984 89.553 101.044C89.652 101.677 89.7701 102.307 89.904 102.932C89.9158 102.985 89.9245 103.038 89.9363 103.091C90.4099 105.254 91.0835 107.371 91.9691 109.427C89.8174 110.712 88.1219 112.594 87.0804 114.843ZM102.619 111.629C101.599 111.391 100.573 111.271 99.5646 111.271C98.556 111.272 97.5306 111.396 96.5089 111.638L96.2034 110.565C97.3323 110.292 98.4609 110.152 99.5656 110.15C100.659 110.148 101.787 110.288 102.925 110.564L102.619 111.629ZM105.593 110.155C103.664 109.345 101.64 108.936 99.5674 108.939C97.4955 108.942 95.4696 109.357 93.5369 110.173C93.4151 109.918 93.3099 109.658 93.1952 109.401C92.1616 107.081 91.3964 104.674 90.9042 102.217C90.8845 102.119 90.8656 102.021 90.8475 101.923C90.7042 101.173 90.5856 100.418 90.4931 99.6598C90.3286 98.284 90.2379 96.893 90.24 95.4852C90.2488 90.3072 91.4143 85.2957 93.5973 80.742L105.624 80.7235C107.794 85.2712 108.944 90.2792 108.936 95.4564C108.928 100.596 107.803 105.538 105.593 110.155Z" fill="black" transform="matrix(1, 0, 0, 1, 12.056029, 35.43895)"/>
  <path d="M99.6014 86.3457C97.2024 86.3486 95.109 88.4436 95.1053 90.8418C95.1015 93.3177 97.1116 95.3278 99.5875 95.324C100.825 95.3221 101.948 94.8173 102.762 94.0034C103.576 93.1896 104.082 92.0659 104.084 90.8279C104.087 88.352 102.077 86.3419 99.6014 86.3457ZM102.962 90.8297C102.957 92.6866 101.445 94.1991 99.5893 94.2019C97.7331 94.204 96.2253 92.6962 96.2274 90.84C96.2288 89.9401 96.58 89.0945 97.2174 88.457C97.8541 87.8204 98.6997 87.4692 99.5996 87.4678C101.457 87.4649 102.964 88.9727 102.962 90.8297ZM96.9688 113.896L96.9632 113.9C96.9561 113.904 96.9481 113.909 96.9418 113.913C95.0543 115.172 94.315 117.597 95.191 119.686L99.0202 128.812C99.1071 129.019 99.3109 129.155 99.5362 129.154C99.6886 129.154 99.8299 129.092 99.9333 128.989C99.9833 128.939 100.025 128.878 100.054 128.809L103.91 119.672C104.793 117.581 104.064 115.156 102.171 113.9C100.586 112.851 98.5353 112.854 96.9688 113.896ZM98.3664 114.812C98.4451 114.733 98.5309 114.662 98.6262 114.6L98.6286 114.597C99.1926 114.222 99.9227 114.221 100.489 114.596C101.16 115.04 101.419 115.903 101.106 116.647L99.549 120.336L98.0025 116.651C97.736 116.014 97.8911 115.287 98.3664 114.812ZM102.877 119.239L99.5393 127.147L96.2249 119.25C95.6928 117.981 95.9489 116.556 96.7988 115.541C96.7123 116.051 96.7567 116.586 96.9686 117.089L99.0298 122.002C99.1176 122.211 99.3206 122.345 99.5459 122.345C99.6983 122.345 99.8396 122.282 99.943 122.179C99.993 122.129 100.034 122.069 100.064 122L102.14 117.08C102.351 116.579 102.4 116.048 102.316 115.54C103.161 116.551 103.412 117.972 102.877 119.239Z" fill="black" transform="matrix(1, 0, 0, 1, 12.056029, 35.43895)"/>
</svg>