<?xml version="1.0" encoding="utf-8"?>
<!-- Generator: Adobe Illustrator 25.0.0, SVG Export Plug-In . SVG Version: 6.00 Build 0)  -->
<svg version="1.1" id="Layer_1" xmlns="http://www.w3.org/2000/svg" xmlns:xlink="http://www.w3.org/1999/xlink" x="0px" y="0px"
	 viewBox="0 0 506.9 131.5" style="enable-background:new 0 0 506.9 131.5;" xml:space="preserve">
<style type="text/css">
	.st0{fill:#231F20;}
	.st1{fill:#005B28;}
	.st2{fill:#00A762;}
</style>
<path class="st0" d="M109.7,58.2L91.4,48.1l-15.4,9.4l-0.2,9.6l-7.5-4.9l-10.2,6.2l-0.4-10.5l-10.5-7l10-5.2c-0.1,0,0,1-1.5-34.3
	L32.2,0L0,10l7.2,34.6L18,53l-8.2,3.9L15.1,83l7.6,7.1l-5.4,3.3l4.2,20.2l16.9,17.9c0.1-0.1,1.8-1.4,21.8-17.3l-0.6-13.7l8.6,7.3
	c0.1-0.1,1.8-1.4,17.6-13.9l0.6-10.1l6.5,4.5c0.1-0.1,1.6-1.2,14.3-11.3L109.7,58.2z"/>
<path class="st1" d="M92.9,88.2L94.5,69L76.1,57.5l-0.4,18.8L92.9,88.2z"/>
<path class="st1" d="M68.2,107.7V87.8L49.6,73.7L51,93.2L68.2,107.7z"/>
<path class="st1" d="M38.4,131.5l-3-20.3L17.3,93.4l4.2,20.2L38.4,131.5z"/>
<path d="M94.5,69l15.1-10.8L91.4,48.1l-15.4,9.4L94.5,69z M68.2,87.8L87,74.4L68.4,62.2L49.6,73.7L68.2,87.8z M35.5,111.2l23.9-17.1
	L40.8,79L17.3,93.4L35.5,111.2z M30,73.7l27.8-15.8L37,44l-27.3,13L30,73.7z M22.7,24.1l33.1-12.7L32.2,0L0,10L22.7,24.1z"/>
<g>
	<path class="st2" d="M107.1,76.9C93.1,88,92.8,88.2,92.9,88.2C94.6,68.1,94.5,69,94.5,69c16-11.5,15-10.8,15.1-10.8L107.1,76.9z"/>
	<path class="st2" d="M85.8,93.8c-17.3,13.8-17.6,13.9-17.6,13.9c-0.2-20.8-0.1-19.9,0-19.9c20-14.3,18.7-13.4,18.7-13.4L85.8,93.8z
		"/>
	<path class="st2" d="M60.2,114.2c-21.7,17.2-21.9,17.3-21.8,17.3c-3.1-20.9-3-20.3-3-20.3C60.9,93,59.3,94.1,59.4,94.1L60.2,114.2z
		"/>
	<path class="st2" d="M55.8,11.4c1.5,35.4,1.4,34.3,1.5,34.3C28.6,60.6,28,60.9,28.1,60.9c-5.5-37.6-5.5-36.8-5.4-36.8L55.8,11.4z"
		/>
	<path class="st2" d="M57.8,57.9c1.2,26.8,1,25.9,1.1,25.9c-24.8,16.7-25.1,16.8-25,16.8c-4-27.6-4-26.9-3.9-26.9L57.8,57.9z"/>
</g>
<path d="M151.6,14.2l16.6-4v79.9c0,8.8,2.6,14,7.8,15.7c-2.6,4.9-6.9,7.3-13.1,7.3c-7.5,0-11.3-5.2-11.3-15.7V14.2z"/>
<path d="M186.7,111.7V54.3h-9.1V40.7h25.9v71L186.7,111.7z M195.2,13.2c5.3,0,9.6,4.3,9.6,9.6c0,5.3-4.3,9.6-9.6,9.6
	c-5.3,0-9.6-4.3-9.6-9.6c0,0,0,0,0,0C185.6,17.5,189.9,13.2,195.2,13.2z"/>
<path d="M262.9,111.7V70.7c0-6.1-1.2-10.5-3.5-13.3s-6.1-4.2-11.4-4.2c-2.7,0.1-5.4,0.8-7.8,2.1c-2.5,1.2-4.7,2.9-6.5,5.1v51.3
	h-16.6v-71h11.9l3,6.6c4.5-5.3,11.2-8,20-8c8.4,0,15.1,2.5,20,7.6s7.3,12.1,7.3,21.2v43.6L262.9,111.7z"/>
<path d="M288.4,76.1c0-10.8,3.1-19.7,9.4-26.5c6.3-6.8,14.5-10.2,24.8-10.2c10.8,0,19.2,3.3,25.1,9.8c6,6.5,9,15.5,9,26.9
	c0,11.3-3,20.3-9.1,27c-6.1,6.7-14.4,10-25,10c-10.8,0-19.2-3.4-25.2-10.1C291.4,96.2,288.4,87.2,288.4,76.1z M305.7,76.1
	c0,15.6,5.6,23.5,16.9,23.5c4.9,0.2,9.5-2.1,12.3-6.1c3-4.1,4.5-9.8,4.5-17.4c0-15.4-5.6-23.1-16.9-23.2c-4.9-0.2-9.5,2.1-12.3,6.1
	C307.2,63.1,305.7,68.8,305.7,76.1L305.7,76.1z"/>
<path d="M412.4,111.7v-4.3c-1.4,1.5-3.7,2.8-7,3.9c-3.3,1.1-6.7,1.7-10.1,1.7c-9.9,0-17.7-3.1-23.4-9.4s-8.5-15-8.5-26.3
	c0-11.2,3.3-20.4,9.8-27.4c6.2-6.9,15.2-10.8,24.5-10.6c5.1-0.1,10.1,1.1,14.7,3.3V14.2l16.6-4v101.5L412.4,111.7z M412.4,57.7
	c-3.1-2.7-7-4.1-11.1-4.2c-6.7,0-11.8,2-15.3,6.1c-3.6,4-5.3,9.8-5.4,17.4c0,14.8,7.1,22.2,21.4,22.2c2-0.1,4-0.6,5.9-1.4
	c2.3-1,3.8-1.9,4.5-2.9L412.4,57.7z"/>
<path d="M505.5,81.3h-50.7c0.3,5.7,2.2,10.1,5.8,13.2c3.6,3.1,8.4,4.7,14.5,4.7c7.6,0,13.3-2,17.2-5.9l6.4,12.7
	c-5.8,4.7-14.5,7.1-26.1,7.1c-10.8,0-19.4-3.2-25.7-9.5s-9.5-15.2-9.5-26.6c0-11.2,3.5-20.3,10.4-27.2c6.5-6.8,15.5-10.5,24.9-10.4
	c10.3,0,18.6,3.1,24.8,9.2s9.4,14,9.4,23.5C506.8,75.2,506.3,78.3,505.5,81.3L505.5,81.3z M455.4,68.8h34.9
	c-1.2-10.4-6.9-15.6-17.2-15.6C463.6,53.2,457.7,58.4,455.4,68.8z"/>
<path class="st1" d="M28.1,60.9l-5.4-36.8L0,10l7.2,34.6L28.1,60.9z"/>
<path class="st1" d="M33.9,100.6L30,73.7L9.7,56.9L15.2,83L33.9,100.6z"/>
</svg>
